<svg width="98" height="98" viewBox="0 0 98 98" fill="none" xmlns="http://www.w3.org/2000/svg">
<g clip-path="url(#clip0_504_143)">
<circle cx="49" cy="49" r="47" fill="black" stroke="white" stroke-width="4"/>
<path d="M30.0659 82.7767V31.5287H68.1242V42.7392H44.4022V51.5474H66.1645V62.7579H44.4022V71.5662H68.021V82.7767H30.0659ZM41.1018 27.0245C39.3484 27.0245 37.8615 26.4573 36.641 25.3229C35.4205 24.1885 34.8103 22.8205 34.8103 21.219C34.8103 19.6175 35.4205 18.2496 36.641 17.1152C37.8615 15.9808 39.3484 15.4136 41.1018 15.4136C42.8036 15.4136 44.2561 15.9808 45.4594 17.1152C46.6799 18.2496 47.2901 19.6175 47.2901 21.219C47.2901 22.8205 46.6799 24.1885 45.4594 25.3229C44.2561 26.4573 42.8036 27.0245 41.1018 27.0245ZM57.5009 27.0245C55.7475 27.0245 54.2606 26.4573 53.0401 25.3229C51.8196 24.1885 51.2094 22.8205 51.2094 21.219C51.2094 19.6175 51.8196 18.2496 53.0401 17.1152C54.2606 15.9808 55.7475 15.4136 57.5009 15.4136C59.2027 15.4136 60.6552 15.9808 61.8585 17.1152C63.079 18.2496 63.6892 19.6175 63.6892 21.219C63.6892 22.8205 63.079 24.1885 61.8585 25.3229C60.6552 26.4573 59.2027 27.0245 57.5009 27.0245Z" fill="white"/>
</g>
<defs>
<clipPath id="clip0_504_143">
<rect width="98" height="98" fill="white"/>
</clipPath>
</defs>
</svg>
